<?xml version="1.0" standalone="no"?>
<!DOCTYPE svg PUBLIC "-//W3C//DTD SVG 20010904//EN" "http://www.w3.org/TR/2001/REC-SVG-20010904/DTD/svg10.dtd">
<svg version="1.0" xmlns="http://www.w3.org/2000/svg" width="100%" viewBox="0 0 512 512" enable-background="new 0 0 512 512" preserveAspectRatio="xMidYMid meet">

<g transform="translate(0.000000,512.000000) scale(0.100000,-0.100000)"
fill="#ffffff" stroke="none">
<path d="M2540 5109 c-143 -15 -298 -49 -454 -100 -755 -247 -1315 -894 -1451
-1677 -8 -49 -20 -149 -25 -223 l-10 -134 -202 -406 c-191 -386 -201 -408
-189 -436 9 -23 53 -54 201 -144 l190 -114 0 -591 c0 -583 0 -592 21 -618 l20
-26 380 0 379 0 0 -295 0 -296 25 -24 c31 -32 69 -32 100 0 l25 24 0 344 c0
325 -1 346 -19 368 l-19 24 -381 3 -381 3 0 567 c0 437 -3 573 -13 592 -8 16
-77 64 -185 130 -94 58 -172 108 -172 113 0 4 83 172 184 375 l183 367 7 110
c28 437 160 797 419 1140 78 103 269 294 373 372 807 610 1919 534 2634 -179
483 -483 686 -1168 544 -1840 -62 -297 -207 -598 -401 -838 -59 -72 -232 -247
-301 -303 -65 -52 -62 -21 -62 -699 0 -403 4 -626 10 -644 21 -55 68 -69 114
-33 l26 20 0 619 0 618 33 27 c137 114 311 307 412 460 242 363 359 754 359
1195 0 217 -16 348 -64 540 -71 283 -213 570 -398 804 -71 91 -257 277 -348
348 -440 347 -1010 513 -1564 457z"/>
<path d="M2636 4699 c-19 -15 -26 -30 -26 -54 0 -28 11 -46 62 -100 l61 -66
-61 -62 c-50 -50 -62 -69 -62 -94 0 -26 13 -46 62 -98 l61 -66 -61 -62 c-70
-71 -80 -107 -39 -145 44 -42 71 -31 174 71 52 50 99 102 104 115 13 33 -6 70
-67 132 l-54 56 51 49 c61 60 83 98 73 128 -9 28 -160 184 -196 203 -36 19
-51 18 -82 -7z"/>
<path d="M1840 4440 c-24 -24 -26 -76 -4 -101 9 -10 53 -27 98 -39 l83 -22
-21 -84 c-31 -129 -20 -143 141 -184 l42 -10 -20 -70 c-25 -92 -24 -122 4
-148 40 -37 95 -25 115 25 23 58 62 213 62 247 0 46 -27 66 -118 90 -80 21
-81 22 -57 102 20 66 19 117 -3 137 -20 18 -228 77 -272 77 -17 0 -39 -9 -50
-20z"/>
<path d="M3494 4431 c-55 -16 -110 -34 -122 -40 -34 -18 -37 -55 -13 -143 12
-45 20 -82 19 -83 -2 -1 -39 -12 -83 -23 -83 -22 -115 -46 -115 -85 0 -11 14
-72 31 -136 38 -147 75 -186 140 -150 36 19 41 55 19 135 -11 41 -20 79 -20
84 0 5 26 17 58 25 89 25 112 36 129 62 15 22 14 31 -7 109 -12 47 -20 87 -17
90 3 3 38 14 79 24 108 28 143 76 97 134 -27 34 -62 33 -195 -3z"/>
<path d="M2680 3834 c-388 -32 -817 -249 -1195 -605 -203 -191 -202 -180 -37
-340 509 -494 1065 -716 1552 -619 145 29 261 70 425 150 197 96 357 206 575
396 179 156 216 205 190 254 -24 45 -199 198 -380 332 -410 304 -811 458
-1130 432z m176 -155 c313 -35 746 -268 1119 -603 l40 -36 -75 -73 c-259 -251
-606 -458 -892 -533 -229 -59 -473 -44 -708 43 -246 91 -537 280 -765 496
l-70 67 70 68 c331 321 769 549 1105 575 25 2 53 4 63 5 10 1 61 -3 113 -9z"/>
<path d="M2645 3620 c-286 -58 -491 -326 -472 -617 34 -504 644 -735 1002
-379 149 149 207 349 159 556 -21 94 -49 134 -96 138 -27 2 -41 -2 -57 -19
-26 -28 -26 -47 -1 -127 80 -256 -85 -520 -354 -564 -284 -47 -542 211 -497
499 42 270 311 433 577 349 77 -25 95 -25 127 2 17 15 22 56 11 87 -23 59
-258 103 -399 75z"/>
<path d="M2665 3396 c-145 -46 -239 -150 -265 -294 -20 -113 14 -225 97 -313
157 -168 428 -150 563 38 105 148 90 344 -38 472 -27 27 -64 57 -83 67 -82 42
-196 55 -274 30z m196 -164 c129 -67 158 -238 57 -341 -83 -85 -203 -92 -292
-19 -101 83 -109 232 -19 320 76 74 163 88 254 40z"/>
<path d="M2698 3111 c-28 -24 -33 -36 -32 -71 2 -72 61 -112 130 -90 58 19 83
100 46 146 -41 51 -97 57 -144 15z"/>
</g>
</svg>
